<svg width="121" height="30" viewBox="0 0 121 30" fill="none" xmlns="http://www.w3.org/2000/svg">
<path d="M45.2374 20.232L50.0055 6.98403H53.0485L46.6271 24H43.704L37.3784 6.98403H40.4933L45.2374 20.232ZM54.3965 16.872H60.1231C60.0911 16.1361 59.8275 15.52 59.3324 15.024C58.8532 14.5281 58.1583 14.28 57.2478 14.28C56.4171 14.28 55.7462 14.544 55.2351 15.072C54.7239 15.5841 54.4445 16.1841 54.3965 16.872ZM60.4346 19.92L62.7827 20.664C62.4472 21.736 61.8162 22.624 60.8898 23.328C59.9793 24.016 58.8532 24.36 57.5114 24.36C55.8501 24.36 54.4364 23.7921 53.2704 22.656C52.1203 21.52 51.5452 20.0001 51.5452 18.096C51.5452 16.3041 52.1042 14.832 53.2225 13.68C54.3565 12.528 55.6904 11.952 57.2239 11.952C59.0129 11.952 60.4106 12.504 61.4169 13.608C62.4233 14.6961 62.9264 16.168 62.9264 18.024C62.9264 18.52 62.9025 18.816 62.8545 18.912H54.3246C54.3565 19.792 54.676 20.52 55.2831 21.096C55.906 21.672 56.6488 21.96 57.5114 21.96C59.0129 21.96 59.9872 21.28 60.4346 19.92ZM71.2131 12.24V15.072C70.8936 15.024 70.5902 15 70.3026 15C68.2101 15 67.1638 16.144 67.1638 18.432V24H64.3844V12.312H67.0919V14.184C67.3635 13.56 67.8027 13.072 68.4098 12.72C69.0168 12.352 69.7036 12.168 70.4704 12.168C70.7259 12.168 70.9735 12.192 71.2131 12.24ZM75.0908 24H72.3353V12.312H75.0908V24ZM72.4312 9.48003C72.0798 9.12804 71.904 8.70403 71.904 8.20803C71.904 7.71204 72.0798 7.28803 72.4312 6.93603C72.7825 6.56803 73.2059 6.38403 73.7011 6.38403C74.2123 6.38403 74.6435 6.56004 74.9949 6.91203C75.3463 7.26403 75.522 7.69603 75.522 8.20803C75.522 8.70403 75.3463 9.12804 74.9949 9.48003C74.6435 9.83203 74.2123 10.008 73.7011 10.008C73.2059 10.008 72.7825 9.83203 72.4312 9.48003ZM79.3473 18.12C79.3473 19.24 79.6348 20.1441 80.2099 20.832C80.785 21.504 81.5437 21.84 82.4861 21.84C83.3966 21.84 84.1394 21.496 84.7145 20.808C85.2895 20.1201 85.577 19.216 85.577 18.096C85.577 16.992 85.2974 16.1121 84.7384 15.456C84.1793 14.8 83.4365 14.472 82.5101 14.472C81.5836 14.472 80.8248 14.808 80.2339 15.48C79.6428 16.1361 79.3473 17.016 79.3473 18.12ZM88.2606 6.62403V21.864C88.2606 22.648 88.3005 23.3601 88.3804 24H85.7208C85.6409 23.5521 85.601 23.0481 85.601 22.488C85.3135 23.016 84.8661 23.448 84.2592 23.784C83.6522 24.12 82.9573 24.288 82.1747 24.288C80.5134 24.288 79.1636 23.704 78.1253 22.536C77.087 21.3681 76.5679 19.896 76.5679 18.12C76.5679 16.408 77.087 14.9601 78.1253 13.776C79.1796 12.592 80.5134 12 82.1267 12C83.0532 12 83.7959 12.168 84.3551 12.504C84.9301 12.84 85.3294 13.2321 85.5531 13.68V6.62403H88.2606ZM93.4495 24H90.694V12.312H93.4495V24ZM90.7899 9.48003C90.4385 9.12804 90.2627 8.70403 90.2627 8.20803C90.2627 7.71204 90.4385 7.28803 90.7899 6.93603C91.1413 6.56803 91.5646 6.38403 92.0598 6.38403C92.571 6.38403 93.0022 6.56004 93.3536 6.91203C93.7051 7.26403 93.8807 7.69603 93.8807 8.20803C93.8807 8.70403 93.7051 9.12804 93.3536 9.48003C93.0022 9.83203 92.571 10.008 92.0598 10.008C91.5646 10.008 91.1413 9.83203 90.7899 9.48003ZM98.6405 20.88C99.2794 21.5361 100.054 21.864 100.965 21.864C101.875 21.864 102.642 21.5361 103.265 20.88C103.904 20.224 104.223 19.312 104.223 18.144C104.223 16.992 103.904 16.096 103.265 15.456C102.642 14.8 101.875 14.472 100.965 14.472C100.054 14.472 99.2794 14.8 98.6405 15.456C98.0175 16.096 97.706 16.992 97.706 18.144C97.706 19.296 98.0175 20.208 98.6405 20.88ZM100.965 11.952C102.722 11.952 104.167 12.5361 105.301 13.704C106.452 14.872 107.027 16.3521 107.027 18.144C107.027 19.936 106.452 21.424 105.301 22.608C104.167 23.776 102.722 24.36 100.965 24.36C99.2236 24.36 97.7779 23.776 96.6278 22.608C95.4936 21.424 94.9266 19.936 94.9266 18.144C94.9266 16.3521 95.4936 14.872 96.6278 13.704C97.7779 12.5361 99.2236 11.952 100.965 11.952ZM111.294 17.256V24H108.515V12.312H111.222V13.872C111.59 13.2321 112.077 12.76 112.684 12.456C113.307 12.136 113.97 11.976 114.672 11.976C116.046 11.976 117.092 12.408 117.811 13.272C118.53 14.136 118.889 15.2481 118.889 16.608V24H116.11V17.088C116.11 16.3041 115.918 15.6801 115.535 15.216C115.152 14.736 114.545 14.496 113.714 14.496C112.947 14.496 112.348 14.76 111.917 15.288C111.502 15.8001 111.294 16.456 111.294 17.256Z" fill="white"/>
<path d="M14.1935 3.6001C14.5626 3.6001 14.9112 3.77841 15.1327 4.08057L21.4646 12.7196C21.6858 13.0217 22.0336 13.2 22.4025 13.2001C22.6985 13.2001 22.9385 12.9546 22.9385 12.6517V7.2001C22.9385 6.53736 23.4647 6.0001 24.1123 6.0001H29.9758C30.6232 6.00045 31.1485 6.53757 31.1485 7.2001V13.2001C31.1485 13.8626 30.6232 14.3997 29.9758 14.4001H25.9206C25.2729 14.4001 24.7479 14.9373 24.7479 15.6001V25.2001C24.7479 25.8629 24.2229 26.4001 23.5752 26.4001H15.9893C15.231 26.4001 14.5192 26.0251 14.079 25.3934L0.219635 5.49619C-0.333373 4.70185 0.221545 3.6001 1.17475 3.6001H14.1935Z" fill="white"/>
</svg>
