<svg width="32" height="32" viewBox="0 0 32 32" fill="none" xmlns="http://www.w3.org/2000/svg">
  <path d="M14.1935 4.6001C14.5626 4.6001 14.9112 4.77841 15.1327 5.08057L21.4646 13.7196C21.6858 14.0217 22.0336 14.2 22.4025 14.2001C22.6985 14.2001 22.9385 13.9546 22.9385 13.6517V8.2001C22.9385 7.53736 23.4647 7.0001 24.1123 7.0001H29.9758C30.6232 7.00045 31.1485 7.53757 31.1485 8.2001V14.2001C31.1485 14.8626 30.6232 15.3997 29.9758 15.4001H25.9206C25.2729 15.4001 24.7479 15.9373 24.7479 16.6001V26.2001C24.7479 26.8629 24.2229 27.4001 23.5752 27.4001H15.9893C15.231 27.4001 14.5192 27.0251 14.079 26.3934L0.219635 6.49619C-0.333373 5.70185 0.221545 4.6001 1.17475 4.6001H14.1935Z" fill="white"/>
</svg>
